<?xml version="1.0" encoding="UTF-8"?>
<svg width="32px" height="32px" viewBox="0 0 32 32" version="1.1" xmlns="http://www.w3.org/2000/svg" xmlns:xlink="http://www.w3.org/1999/xlink">
    <title>Vite Logo</title>
    <defs>
        <linearGradient x1="50%" y1="0%" x2="50%" y2="100%" id="linearGradient-1">
            <stop stop-color="#41D1FF" offset="0%"></stop>
            <stop stop-color="#BD34FE" offset="100%"></stop>
        </linearGradient>
    </defs>
    <g id="Page-1" stroke="none" stroke-width="1" fill="none" fill-rule="evenodd">
        <g id="vite-logo" fill-rule="nonzero">
            <path d="M29.8836,6.0392 L16.0441,29.5592 C15.8197,29.9406 15.2694,29.9406 15.045,29.5592 L1.1162,6.0392 C0.8654,5.6172 1.1816,5.0892 1.6656,5.1582 L15.5441,7.1952 C15.5441,7.1952 15.5441,7.1952 15.5548,7.1952 L15.5548,7.1952 C15.5655,7.1952 15.5655,7.1952 15.5762,7.1952 L29.3334,5.1582 C29.8174,5.0892 30.1336,5.6172 29.8836,6.0392 Z" id="Path" fill="url(#linearGradient-1)"></path>
            <path d="M20.2922,0.3522 L11.8162,1.9332 C11.6132,1.9752 11.4636,2.1462 11.4422,2.3532 L10.3902,13.2522 C10.3582,13.5372 10.5722,13.7862 10.8562,13.7862 L14.0922,13.7862 C14.3922,13.7862 14.6062,14.0562 14.5636,14.3522 L13.7742,19.5102 C13.7316,19.8272 14.0282,20.0972 14.3282,19.9892 L16.5422,19.1892 C16.8422,19.0812 17.1388,19.3512 17.0962,19.6682 L15.9282,26.7792 C15.8642,27.2232 16.4462,27.4932 16.7142,27.1302 L17.0002,26.7372 L25.4762,13.4352 C25.6472,13.1712 25.4548,12.8122 25.1442,12.8122 L21.7442,12.8122 C21.4342,12.8122 21.2422,12.4952 21.3482,12.2102 L23.4562,6.6372 C23.5622,6.3522 23.3702,6.0352 23.0602,6.0352 L19.9922,6.0352 C19.7142,6.0352 19.5002,5.8012 19.5322,5.5262 L20.7642,0.8172 C20.7962,0.5322 20.5822,0.2832 20.2922,0.3522 Z" id="Path" fill="#FFD62E"></path>
        </g>
    </g>
</svg>

